# xmcd
# 
# Track frame offsets:
#     150
#     12024
#     25255
#     38738
#     49086
#     59191
#     79737
#     91533
#     105856
#     119454
#     131238
#     141276
#     151437
# 
# Disc length: 2207
# 
# Revision: 0
# Processed by: cddbd v1.5.2PL0 Copyright (c) Steve Scherf et al.
# Submitted via: fre:ac v1.0.17
# 
DISCID=a4089d0d
DTITLE=Brendan Hughes - Everything Is Nothing Without You
DYEAR=2013
DGENRE=Country
TTITLE0=Irma Jackson
TTITLE1=The Birthmark Henry Thompson Talks About
TTITLE2=Everything Is Nothing Without You
TTITLE3=The Longer You Wait
TTITLE4=Mama Tried
TTITLE5=The Farmers Daughter
TTITLE6=California Cotton Fields
TTITLE7=Time Changes Everything
TTITLE8=Mary's Mine
TTITLE9=Bob
TTITLE10=The Sunnyside Of My Life
TTITLE11=Okie From Muskogee
TTITLE12=She's Gone, Gone, Gone
EXTD=
EXTT0=
EXTT1=
EXTT2=
EXTT3=
EXTT4=
EXTT5=
EXTT6=
EXTT7=
EXTT8=
EXTT9=
EXTT10=
EXTT11=
EXTT12=
PLAYORDER=
